<?xml version="1.0" encoding="UTF-8"?>
<svg version="1.1" xmlns="http://www.w3.org/2000/svg" width="460" height="460">
<path d="M0 0 C151.8 0 303.6 0 460 0 C460 151.8 460 303.6 460 460 C308.2 460 156.4 460 0 460 C0 308.2 0 156.4 0 0 Z " fill="#8BFEFA" transform="translate(0,0)"/>
<path d="M0 0 C5.56116253 -0.08028601 5.56116253 -0.08028601 8.23295593 1.1668396 C10.37973958 3.69867289 10.69234565 5.7829585 11.26029968 9.0418396 C12.15631594 13.44442758 13.19671724 17.20847301 15.19779968 21.2293396 C18.02818531 26.96683817 19.54736436 32.91727123 21.03520203 39.11288452 C21.54123419 41.11408962 22.17256231 43.08273731 22.82279968 45.0418396 C26.04562933 46.11611615 28.37755232 46.14197214 31.76029968 46.1043396 C32.80057312 46.09531616 33.84084656 46.08629272 34.91264343 46.07699585 C35.872995 46.06539429 36.83334656 46.05379272 37.82279968 46.0418396 C39.14279968 46.0418396 40.46279968 46.0418396 41.82279968 46.0418396 C42.10252625 47.09758179 42.38225281 48.15332397 42.67045593 49.24105835 C45.92622651 61.33846684 49.73755259 73.20084423 53.82279968 85.0418396 C54.19404968 86.1246521 54.56529968 87.2074646 54.94779968 88.3230896 C56.23560921 91.97188327 57.57975282 95.52419124 59.22563171 99.02963257 C63.40109346 108.00839536 65.31614412 116.45648947 66.63529968 126.2293396 C66.83868668 127.61435462 67.04376134 128.99912287 67.25053406 130.38363647 C68.11733641 136.29926571 68.86348663 142.18853903 69.27201843 148.15512085 C69.61124298 152.44493935 70.88223874 155.19152028 72.82279968 159.0418396 C73.30297064 162.32714304 73.37881001 165.60040731 73.44779968 168.9168396 C73.49957337 170.64349193 73.55422597 172.37006052 73.61186218 174.0965271 C73.6382074 175.23323853 73.6382074 175.23323853 73.66508484 176.39291382 C73.78995338 179.1637682 73.78995338 179.1637682 74.32548523 182.36532593 C75.20084709 189.13676248 74.98739162 195.99518859 74.99076843 202.81137085 C74.99398593 204.33974742 74.99735036 205.86812369 75.00085449 207.39649963 C75.00681463 210.58452062 75.0086973 213.77251461 75.00810242 216.96054077 C75.00800025 221.04726276 75.02172177 225.13381313 75.03887463 229.22049427 C75.0499764 232.36972352 75.05202229 235.51891076 75.05149269 238.66815758 C75.05267289 240.17566209 75.0570969 241.68316768 75.06482506 243.19065285 C75.0746006 245.2919706 75.07175826 247.39290858 75.0657196 249.49423218 C75.06714462 250.68921829 75.06856964 251.88420441 75.07003784 253.11540222 C74.82279968 256.0418396 74.82279968 256.0418396 72.82279968 259.0418396 C70.73832703 259.65438843 70.73832703 259.65438843 68.15873718 259.99887085 C67.20853699 260.13873413 66.25833679 260.27859741 65.27934265 260.42269897 C63.75397888 260.63636108 63.75397888 260.63636108 62.19779968 260.8543396 C50.17821148 262.73550352 38.38349739 265.06641997 28.82279968 273.0418396 C26.49608103 274.05713501 24.16245498 275.05672158 21.82279968 276.0418396 C19.81664834 277.36589948 17.8161081 278.69852306 15.82279968 280.0418396 C14.93592468 280.3924646 14.04904968 280.7430896 13.13529968 281.1043396 C10.78965418 281.87166969 10.78965418 281.87166969 9.38529968 283.5418396 C7.82279968 285.0418396 7.82279968 285.0418396 4.88529968 285.9793396 C1.77396667 286.80089624 1.77396667 286.80089624 -0.05220032 288.9793396 C-3.76683899 292.58472419 -8.28435499 293.61691514 -13.23970032 294.7293396 C-18.20617198 293.56697389 -20.49111311 290.20456558 -23.17720032 286.0418396 C-23.98545181 283.96928227 -24.72228323 281.86755783 -25.38813782 279.7449646 C-25.72893372 278.67407593 -26.06972961 277.60318726 -26.42085266 276.49984741 C-26.67044739 275.68870483 -26.92004211 274.87756226 -27.17720032 274.0418396 C-27.82581654 274.03760766 -28.47443275 274.03337572 -29.14270401 274.02901554 C-44.96945441 273.92543621 -60.79616052 273.81675938 -76.62283707 273.70250034 C-84.27668566 273.64736543 -91.9305389 273.59391734 -99.58442688 273.54452515 C-106.26028487 273.50144002 -112.93611128 273.45510346 -119.61192012 273.40496105 C-123.14239008 273.37855441 -126.67285457 273.35370903 -130.20336151 273.33276558 C-134.15724864 273.30924937 -138.11106218 273.27846971 -142.06489563 273.24716187 C-143.21864685 273.2414064 -144.37239807 273.23565094 -145.56111145 273.22972107 C-151.93081463 273.17270102 -158.21535415 272.86843882 -164.55741882 272.2644577 C-168.44971516 271.9337066 -172.3204461 271.9164133 -176.22407532 271.94418335 C-177.00615356 271.9455983 -177.78823181 271.94701324 -178.5940094 271.94847107 C-181.03844903 271.95397077 -183.48278942 271.96650232 -185.92720032 271.9793396 C-187.60688647 271.98436763 -189.2865741 271.98892822 -190.96626282 271.99301147 C-195.03661228 272.00390696 -199.10688961 272.02109876 -203.17720032 272.0418396 C-205.96657936 277.05268764 -208.74796767 282.06720287 -211.48970032 287.1043396 C-212.00145813 288.04406616 -212.51321594 288.98379272 -213.04048157 289.95199585 C-213.41559875 290.64164429 -213.79071594 291.33129272 -214.17720032 292.0418396 C-220.52355033 292.8034016 -224.71168064 291.16236319 -230.48066711 288.53207397 C-238.80826914 284.77397665 -247.5443244 282.21399569 -256.38423157 279.9480896 C-257.40238953 279.68632935 -257.40238953 279.68632935 -258.44111633 279.41928101 C-260.31369699 278.94555378 -262.19065345 278.48922114 -264.06782532 278.0340271 C-267.05767948 277.07997816 -268.91875415 276.19966193 -271.17720032 274.0418396 C-271.17720032 273.3818396 -271.17720032 272.7218396 -271.17720032 272.0418396 C-271.83720032 272.1243396 -272.49720032 272.2068396 -273.17720032 272.2918396 C-278.22385445 271.87128509 -282.4447853 269.15495035 -286.65766907 266.4480896 C-291.88180646 264.36075391 -296.9741697 264.46931667 -302.55220032 264.3543396 C-303.6698175 264.32017944 -304.78743469 264.28601929 -305.93891907 264.25082397 C-308.68491254 264.16867887 -311.43060014 264.09941832 -314.17720032 264.0418396 C-314.67220032 266.0218396 -314.67220032 266.0218396 -315.17720032 268.0418396 C-316.16720032 267.7118396 -317.15720032 267.3818396 -318.17720032 267.0418396 C-319.04642141 261.59633125 -319.476798 256.21662609 -319.72798157 250.70980835 C-319.76982071 249.80288742 -319.81165985 248.89596649 -319.85476685 247.96156311 C-320.29532129 237.52899753 -320.36327798 227.09747094 -320.36250305 216.65682983 C-320.36470528 213.34688737 -320.38300214 210.03727122 -320.40180969 206.72738647 C-320.42851693 197.07123679 -320.34889541 187.47049576 -319.35298157 177.85824585 C-319.283629 177.15041458 -319.21427643 176.44258331 -319.14282227 175.71330261 C-318.59791826 171.20228986 -317.29168061 167.67002129 -315.17720032 163.6668396 C-311.83173812 157.27562973 -311.32056889 151.42497241 -310.79438782 144.35507202 C-310.36324705 138.5814152 -309.46235255 133.26624133 -307.88813782 127.67855835 C-307.18036165 125.05356432 -306.72253709 122.47644331 -306.30220032 119.7918396 C-305.12428049 112.98935259 -302.95452495 106.49768513 -300.80317688 99.95492554 C-300.23542519 98.21978427 -299.68573523 96.47875891 -299.13813782 94.7371521 C-296.95777083 87.91242617 -294.28217142 81.49395226 -291.17720032 75.0418396 C-290.66286438 73.91519897 -290.14852844 72.78855835 -289.61860657 71.6277771 C-285.76655288 63.46106743 -281.2927739 56.6868533 -275.17720032 50.0418396 C-274.51591125 49.12144897 -273.85462219 48.20105835 -273.17329407 47.2527771 C-268.41814235 43.74376031 -263.60022629 44.51144995 -257.86470032 44.7293396 C-256.74257141 44.75189819 -255.6204425 44.77445679 -254.46430969 44.79769897 C-251.70057496 44.85650184 -248.93957478 44.93863559 -246.17720032 45.0418396 C-246.21647644 44.08144775 -246.21647644 44.08144775 -246.25654602 43.10165405 C-246.36081313 40.18613458 -246.42561784 37.27100762 -246.48970032 34.3543396 C-246.53159485 33.34693726 -246.57348938 32.33953491 -246.61665344 31.30160522 C-246.69146561 26.76798771 -246.73613982 23.92922809 -244.28266907 20.0340271 C-240.10446787 17.35367162 -235.9497029 16.11663195 -231.17720032 14.8543396 C-229.40584568 14.36272451 -227.63499503 13.86928915 -225.86470032 13.37387085 C-225.03970032 13.14643188 -224.21470032 12.91899292 -223.36470032 12.68466187 C-220.89712291 11.9595356 -218.55775541 11.0110656 -216.17720032 10.0418396 C-200.82763513 6.17920231 -183.91344471 6.82428783 -168.17720032 7.0418396 C-165.94427793 11.06346905 -164.84823717 14.01386913 -164.73970032 18.6043396 C-164.34354324 25.46819149 -162.41922741 31.57645913 -160.17720032 38.0418396 C-159.24778625 37.76469116 -158.31837219 37.48754272 -157.36079407 37.20199585 C-155.50647766 36.65865601 -155.50647766 36.65865601 -153.61470032 36.1043396 C-152.39653625 35.74469116 -151.17837219 35.38504272 -149.92329407 35.01449585 C-144.03563105 33.48579085 -138.39736859 32.91665693 -132.32392883 32.92831421 C-131.67917099 32.92816818 -131.03441315 32.92802216 -130.37011719 32.9278717 C-128.26541125 32.92856143 -126.16079681 32.93630918 -124.05610657 32.94418335 C-122.58637541 32.94605088 -121.11664363 32.9474732 -119.64691162 32.94847107 C-115.7984085 32.9522699 -111.94994376 32.96207739 -108.10145569 32.97317505 C-104.16642272 32.9834461 -100.23138348 32.98798084 -96.29634094 32.99301147 C-88.58994333 33.00370228 -80.88357722 33.02074668 -73.17720032 33.0418396 C-72.98085999 32.36604858 -72.78451965 31.69025757 -72.58222961 30.99398804 C-71.68501668 27.92400643 -70.77501243 24.85796129 -69.86470032 21.7918396 C-69.55596985 20.72836304 -69.24723938 19.66488647 -68.92915344 18.56918335 C-68.6230011 17.54437866 -68.31684875 16.51957397 -68.00141907 15.4637146 C-67.7238678 14.52108765 -67.44631653 13.57846069 -67.16035461 12.60726929 C-66.15049003 9.97214213 -65.03906225 8.15220732 -63.17720032 6.0418396 C-59.85566614 4.59812132 -56.28605615 4.04758078 -52.73970032 3.3543396 C-51.66599182 3.14011353 -50.59228333 2.92588745 -49.48603821 2.70516968 C-33.12639646 -0.22236927 -16.55080381 0.31805939 0 0 Z " fill="#656EEC" transform="translate(351.1772003173828,86.95816040039063)"/>
<path d="M0 0 C5.56116253 -0.08028601 5.56116253 -0.08028601 8.23295593 1.1668396 C10.37973958 3.69867289 10.69234565 5.7829585 11.26029968 9.0418396 C12.15631594 13.44442758 13.19671724 17.20847301 15.19779968 21.2293396 C18.02818531 26.96683817 19.54736436 32.91727123 21.03520203 39.11288452 C21.54123419 41.11408962 22.17256231 43.08273731 22.82279968 45.0418396 C26.04562933 46.11611615 28.37755232 46.14197214 31.76029968 46.1043396 C32.80057312 46.09531616 33.84084656 46.08629272 34.91264343 46.07699585 C35.872995 46.06539429 36.83334656 46.05379272 37.82279968 46.0418396 C39.14279968 46.0418396 40.46279968 46.0418396 41.82279968 46.0418396 C42.10252625 47.09758179 42.38225281 48.15332397 42.67045593 49.24105835 C45.92622651 61.33846684 49.73755259 73.20084423 53.82279968 85.0418396 C54.19404968 86.1246521 54.56529968 87.2074646 54.94779968 88.3230896 C56.23560921 91.97188327 57.57975282 95.52419124 59.22563171 99.02963257 C63.40109346 108.00839536 65.31614412 116.45648947 66.63529968 126.2293396 C66.83868668 127.61435462 67.04376134 128.99912287 67.25053406 130.38363647 C68.11733641 136.29926571 68.86348663 142.18853903 69.27201843 148.15512085 C69.61124298 152.44493935 70.88223874 155.19152028 72.82279968 159.0418396 C73.30297064 162.32714304 73.37881001 165.60040731 73.44779968 168.9168396 C73.49957337 170.64349193 73.55422597 172.37006052 73.61186218 174.0965271 C73.6382074 175.23323853 73.6382074 175.23323853 73.66508484 176.39291382 C73.78995338 179.1637682 73.78995338 179.1637682 74.32548523 182.36532593 C75.20084709 189.13676248 74.98739162 195.99518859 74.99076843 202.81137085 C74.99398593 204.33974742 74.99735036 205.86812369 75.00085449 207.39649963 C75.00681463 210.58452062 75.0086973 213.77251461 75.00810242 216.96054077 C75.00800025 221.04726276 75.02172177 225.13381313 75.03887463 229.22049427 C75.0499764 232.36972352 75.05202229 235.51891076 75.05149269 238.66815758 C75.05267289 240.17566209 75.0570969 241.68316768 75.06482506 243.19065285 C75.0746006 245.2919706 75.07175826 247.39290858 75.0657196 249.49423218 C75.06714462 250.68921829 75.06856964 251.88420441 75.07003784 253.11540222 C74.82279968 256.0418396 74.82279968 256.0418396 72.82279968 259.0418396 C70.73832703 259.65438843 70.73832703 259.65438843 68.15873718 259.99887085 C67.20853699 260.13873413 66.25833679 260.27859741 65.27934265 260.42269897 C63.75397888 260.63636108 63.75397888 260.63636108 62.19779968 260.8543396 C50.17821148 262.73550352 38.38349739 265.06641997 28.82279968 273.0418396 C26.49608103 274.05713501 24.16245498 275.05672158 21.82279968 276.0418396 C19.81664834 277.36589948 17.8161081 278.69852306 15.82279968 280.0418396 C14.93592468 280.3924646 14.04904968 280.7430896 13.13529968 281.1043396 C10.78965418 281.87166969 10.78965418 281.87166969 9.38529968 283.5418396 C7.82279968 285.0418396 7.82279968 285.0418396 4.88529968 285.9793396 C1.77396667 286.80089624 1.77396667 286.80089624 -0.05220032 288.9793396 C-3.76683899 292.58472419 -8.28435499 293.61691514 -13.23970032 294.7293396 C-18.20617198 293.56697389 -20.49111311 290.20456558 -23.17720032 286.0418396 C-23.98545181 283.96928227 -24.72228323 281.86755783 -25.38813782 279.7449646 C-25.72893372 278.67407593 -26.06972961 277.60318726 -26.42085266 276.49984741 C-26.67044739 275.68870483 -26.92004211 274.87756226 -27.17720032 274.0418396 C-27.82581654 274.03760766 -28.47443275 274.03337572 -29.14270401 274.02901554 C-44.96945441 273.92543621 -60.79616052 273.81675938 -76.62283707 273.70250034 C-84.27668566 273.64736543 -91.9305389 273.59391734 -99.58442688 273.54452515 C-106.26028487 273.50144002 -112.93611128 273.45510346 -119.61192012 273.40496105 C-123.14239008 273.37855441 -126.67285457 273.35370903 -130.20336151 273.33276558 C-134.15724864 273.30924937 -138.11106218 273.27846971 -142.06489563 273.24716187 C-143.21864685 273.2414064 -144.37239807 273.23565094 -145.56111145 273.22972107 C-151.93081463 273.17270102 -158.21535415 272.86843882 -164.55741882 272.2644577 C-168.44971516 271.9337066 -172.3204461 271.9164133 -176.22407532 271.94418335 C-177.00615356 271.9455983 -177.78823181 271.94701324 -178.5940094 271.94847107 C-181.03844903 271.95397077 -183.48278942 271.96650232 -185.92720032 271.9793396 C-187.60688647 271.98436763 -189.2865741 271.98892822 -190.96626282 271.99301147 C-195.03661228 272.00390696 -199.10688961 272.02109876 -203.17720032 272.0418396 C-205.96657936 277.05268764 -208.74796767 282.06720287 -211.48970032 287.1043396 C-212.00145813 288.04406616 -212.51321594 288.98379272 -213.04048157 289.95199585 C-213.41559875 290.64164429 -213.79071594 291.33129272 -214.17720032 292.0418396 C-220.52355033 292.8034016 -224.71168064 291.16236319 -230.48066711 288.53207397 C-238.80826914 284.77397665 -247.5443244 282.21399569 -256.38423157 279.9480896 C-257.40238953 279.68632935 -257.40238953 279.68632935 -258.44111633 279.41928101 C-260.31369699 278.94555378 -262.19065345 278.48922114 -264.06782532 278.0340271 C-267.05767948 277.07997816 -268.91875415 276.19966193 -271.17720032 274.0418396 C-271.17720032 273.3818396 -271.17720032 272.7218396 -271.17720032 272.0418396 C-271.83720032 272.1243396 -272.49720032 272.2068396 -273.17720032 272.2918396 C-278.22385445 271.87128509 -282.4447853 269.15495035 -286.65766907 266.4480896 C-291.88180646 264.36075391 -296.9741697 264.46931667 -302.55220032 264.3543396 C-303.6698175 264.32017944 -304.78743469 264.28601929 -305.93891907 264.25082397 C-308.68491254 264.16867887 -311.43060014 264.09941832 -314.17720032 264.0418396 C-314.67220032 266.0218396 -314.67220032 266.0218396 -315.17720032 268.0418396 C-316.16720032 267.7118396 -317.15720032 267.3818396 -318.17720032 267.0418396 C-319.04642141 261.59633125 -319.476798 256.21662609 -319.72798157 250.70980835 C-319.76982071 249.80288742 -319.81165985 248.89596649 -319.85476685 247.96156311 C-320.29532129 237.52899753 -320.36327798 227.09747094 -320.36250305 216.65682983 C-320.36470528 213.34688737 -320.38300214 210.03727122 -320.40180969 206.72738647 C-320.42851693 197.07123679 -320.34889541 187.47049576 -319.35298157 177.85824585 C-319.283629 177.15041458 -319.21427643 176.44258331 -319.14282227 175.71330261 C-318.59791826 171.20228986 -317.29168061 167.67002129 -315.17720032 163.6668396 C-311.83173812 157.27562973 -311.32056889 151.42497241 -310.79438782 144.35507202 C-310.36324705 138.5814152 -309.46235255 133.26624133 -307.88813782 127.67855835 C-307.18036165 125.05356432 -306.72253709 122.47644331 -306.30220032 119.7918396 C-305.12428049 112.98935259 -302.95452495 106.49768513 -300.80317688 99.95492554 C-300.23542519 98.21978427 -299.68573523 96.47875891 -299.13813782 94.7371521 C-296.95777083 87.91242617 -294.28217142 81.49395226 -291.17720032 75.0418396 C-290.66286438 73.91519897 -290.14852844 72.78855835 -289.61860657 71.6277771 C-285.76655288 63.46106743 -281.2927739 56.6868533 -275.17720032 50.0418396 C-274.51591125 49.12144897 -273.85462219 48.20105835 -273.17329407 47.2527771 C-268.41814235 43.74376031 -263.60022629 44.51144995 -257.86470032 44.7293396 C-256.74257141 44.75189819 -255.6204425 44.77445679 -254.46430969 44.79769897 C-251.70057496 44.85650184 -248.93957478 44.93863559 -246.17720032 45.0418396 C-246.21647644 44.08144775 -246.21647644 44.08144775 -246.25654602 43.10165405 C-246.36081313 40.18613458 -246.42561784 37.27100762 -246.48970032 34.3543396 C-246.53159485 33.34693726 -246.57348938 32.33953491 -246.61665344 31.30160522 C-246.69146561 26.76798771 -246.73613982 23.92922809 -244.28266907 20.0340271 C-240.10446787 17.35367162 -235.9497029 16.11663195 -231.17720032 14.8543396 C-229.40584568 14.36272451 -227.63499503 13.86928915 -225.86470032 13.37387085 C-225.03970032 13.14643188 -224.21470032 12.91899292 -223.36470032 12.68466187 C-220.89712291 11.9595356 -218.55775541 11.0110656 -216.17720032 10.0418396 C-200.82763513 6.17920231 -183.91344471 6.82428783 -168.17720032 7.0418396 C-165.94427793 11.06346905 -164.84823717 14.01386913 -164.73970032 18.6043396 C-164.34354324 25.46819149 -162.41922741 31.57645913 -160.17720032 38.0418396 C-159.24778625 37.76469116 -158.31837219 37.48754272 -157.36079407 37.20199585 C-155.50647766 36.65865601 -155.50647766 36.65865601 -153.61470032 36.1043396 C-152.39653625 35.74469116 -151.17837219 35.38504272 -149.92329407 35.01449585 C-144.03563105 33.48579085 -138.39736859 32.91665693 -132.32392883 32.92831421 C-131.67917099 32.92816818 -131.03441315 32.92802216 -130.37011719 32.9278717 C-128.26541125 32.92856143 -126.16079681 32.93630918 -124.05610657 32.94418335 C-122.58637541 32.94605088 -121.11664363 32.9474732 -119.64691162 32.94847107 C-115.7984085 32.9522699 -111.94994376 32.96207739 -108.10145569 32.97317505 C-104.16642272 32.9834461 -100.23138348 32.98798084 -96.29634094 32.99301147 C-88.58994333 33.00370228 -80.88357722 33.02074668 -73.17720032 33.0418396 C-72.98085999 32.36604858 -72.78451965 31.69025757 -72.58222961 30.99398804 C-71.68501668 27.92400643 -70.77501243 24.85796129 -69.86470032 21.7918396 C-69.55596985 20.72836304 -69.24723938 19.66488647 -68.92915344 18.56918335 C-68.6230011 17.54437866 -68.31684875 16.51957397 -68.00141907 15.4637146 C-67.7238678 14.52108765 -67.44631653 13.57846069 -67.16035461 12.60726929 C-66.15049003 9.97214213 -65.03906225 8.15220732 -63.17720032 6.0418396 C-59.85566614 4.59812132 -56.28605615 4.04758078 -52.73970032 3.3543396 C-51.66599182 3.14011353 -50.59228333 2.92588745 -49.48603821 2.70516968 C-33.12639646 -0.22236927 -16.55080381 0.31805939 0 0 Z M-49.86470032 7.8543396 C-51.20733948 8.08395386 -51.20733948 8.08395386 -52.57710266 8.31820679 C-55.9608221 8.98923695 -58.61329771 9.69032794 -61.55220032 11.52230835 C-64.15354165 15.55563806 -65.24342568 19.93780746 -66.48970032 24.5418396 C-66.76620422 25.49187866 -67.04270813 26.44191772 -67.32759094 27.42074585 C-69.06764062 33.21223446 -69.06764062 33.21223446 -68.17720032 39.0418396 C-67.84720032 40.0318396 -67.51720032 41.0218396 -67.17720032 42.0418396 C-70.64220032 42.5368396 -70.64220032 42.5368396 -74.17720032 43.0418396 C-74.17720032 41.3918396 -74.17720032 39.7418396 -74.17720032 38.0418396 C-82.65382301 37.97178399 -91.13032118 37.9187503 -99.60716343 37.88640308 C-103.54492103 37.87086425 -107.48247803 37.84984676 -111.42012024 37.81552124 C-115.23271543 37.78250049 -119.04511986 37.76489849 -122.85784721 37.75720787 C-124.29963617 37.75173981 -125.74141679 37.74106687 -127.18312263 37.72464943 C-144.66521523 37.3221207 -144.66521523 37.3221207 -160.17720032 44.0418396 C-162.49067904 44.77444119 -164.82295231 45.4532776 -167.17720032 46.0418396 C-166.84720032 45.0518396 -166.51720032 44.0618396 -166.17720032 43.0418396 C-165.51720032 42.7118396 -164.85720032 42.3818396 -164.17720032 42.0418396 C-164.60015949 38.06602339 -165.25960906 34.6578975 -166.67720032 30.9168396 C-168.45212284 25.92810106 -168.7078925 21.02417737 -168.96626282 15.76449585 C-169.00244429 13.07736096 -169.00244429 13.07736096 -170.17720032 11.0418396 C-171.45337219 11.13271851 -171.45337219 11.13271851 -172.75532532 11.22543335 C-173.96704407 11.30922241 -175.17876282 11.39301147 -176.42720032 11.4793396 C-177.42517639 11.54919067 -177.42517639 11.54919067 -178.4433136 11.62045288 C-182.30442152 11.88127881 -186.16115399 12.08911978 -190.02876282 12.22543335 C-203.60230929 12.7220589 -217.39048741 13.41899435 -229.95454407 19.0652771 C-233.04340435 20.42242134 -236.23302062 21.36607414 -239.46235657 22.3309021 C-241.38309956 22.90783278 -241.38309956 22.90783278 -242.17720032 25.0418396 C-242.3306424 26.92656819 -242.42679603 28.81611834 -242.49360657 30.7059021 C-242.5355011 31.82738647 -242.57739563 32.94887085 -242.62055969 34.1043396 C-242.6598761 35.2799646 -242.6991925 36.4555896 -242.73970032 37.6668396 C-242.80447571 39.44187866 -242.80447571 39.44187866 -242.87055969 41.2527771 C-242.97687458 44.18234288 -243.07890673 47.11199548 -243.17720032 50.0418396 C-243.90721252 49.96852417 -244.63722473 49.89520874 -245.38935852 49.81967163 C-258.7162142 48.18432079 -258.7162142 48.18432079 -271.3754425 51.22250366 C-274.86910682 54.27872101 -277.10652752 58.04046945 -279.20259094 62.1434021 C-280.65516258 64.97286027 -282.41980132 67.60241308 -284.11470032 70.2918396 C-286.95233047 75.38467462 -289.19839399 80.56495383 -291.17720032 86.0418396 C-291.65621809 87.29189667 -292.13537973 88.54189861 -292.61470032 89.7918396 C-292.95114563 90.71065918 -292.95114563 90.71065918 -293.29438782 91.64804077 C-293.94052816 93.4000889 -294.60272656 95.14623788 -295.27412415 96.88876343 C-298.57066491 105.69018192 -300.91625537 114.4844145 -302.91743469 123.65487671 C-303.42667003 125.97692158 -303.95728773 128.29337234 -304.48970032 130.61019897 C-306.39146456 139.08626137 -307.63809315 147.25721841 -307.95600891 155.94393921 C-308.32232145 161.0743363 -309.8671835 165.05033776 -312.70527649 169.36483765 C-318.72810502 180.31861353 -316.44910332 197.25504269 -316.38301086 209.29159546 C-316.36482908 212.70516537 -316.36250148 216.11846074 -316.36274719 219.53207397 C-316.34089041 232.73034385 -315.98731643 245.86836345 -315.17720032 259.0418396 C-314.48682678 259.06165894 -313.79645325 259.08147827 -313.0851593 259.10189819 C-309.92798561 259.19772253 -306.7714221 259.30716774 -303.61470032 259.4168396 C-302.52866516 259.4477771 -301.44263 259.4787146 -300.32368469 259.5105896 C-293.15211501 259.77216661 -286.46336435 260.22524001 -280.17720032 264.0418396 C-279.77243469 264.50719116 -279.36766907 264.97254272 -278.95063782 265.45199585 C-276.54335407 267.6100674 -274.07919942 268.4254995 -271.05220032 269.5418396 C-269.88946594 269.97109741 -268.72673157 270.40035522 -267.52876282 270.84262085 C-265.86973938 271.43623413 -265.86973938 271.43623413 -264.17720032 272.0418396 C-262.92036438 272.49623413 -262.92036438 272.49623413 -261.63813782 272.95980835 C-256.5618347 274.72664883 -251.44459053 275.98338057 -246.17720032 277.0418396 C-246.17720032 277.7018396 -246.17720032 278.3618396 -246.17720032 279.0418396 C-244.92616516 279.29707397 -244.92616516 279.29707397 -243.64985657 279.5574646 C-237.45986221 280.89047599 -231.94655238 282.42897805 -226.25532532 285.1902771 C-222.9315137 286.55229013 -219.74381821 286.78244921 -216.17720032 287.0418396 C-215.8510675 286.37797241 -215.52493469 285.71410522 -215.18891907 285.03012085 C-212.99249967 280.59192826 -210.72522959 276.28855505 -208.17720032 272.0418396 C-207.49571382 270.38117757 -206.82714388 268.71509857 -206.17720032 267.0418396 C-201.25166684 267.01686809 -196.32617132 266.99885282 -191.40058899 266.98690796 C-189.72968401 266.98192114 -188.0587833 266.97512929 -186.38789368 266.96640015 C-183.96739134 266.95408391 -181.54694734 266.9485547 -179.12641907 266.94418335 C-178.39573715 266.93902206 -177.66505524 266.93386078 -176.91223145 266.92854309 C-172.98804652 266.92813138 -169.15394765 267.12164931 -165.25093079 267.53610229 C-158.64646984 268.15145908 -152.07345223 268.21619549 -145.44404602 268.24716187 C-144.10253617 268.256766 -142.76102919 268.26677746 -141.41952515 268.27716064 C-137.81287207 268.30394158 -134.20620626 268.32509436 -130.59951043 268.34516263 C-126.81721254 268.36718978 -123.03495265 268.39449578 -119.25268555 268.42121887 C-112.10613058 268.47092153 -104.95955426 268.51594253 -97.81295794 268.55924124 C-89.67014826 268.60880662 -81.52737675 268.6636525 -73.3846041 268.71892083 C-56.64883812 268.83239611 -39.913037 268.93930871 -23.17720032 269.0418396 C-22.95098877 271.03082275 -22.72477722 273.01980591 -22.49856567 275.00878906 C-22.06627273 277.74359974 -21.11787255 279.95705261 -19.86470032 282.4168396 C-19.4560675 283.24957397 -19.04743469 284.08230835 -18.62641907 284.9402771 C-16.9401194 287.38563888 -16.02358988 288.20555523 -13.17720032 289.0418396 C-8.77367967 288.75642622 -6.01678784 287.59710871 -2.42720032 285.1043396 C2.54037242 281.79488964 7.64073006 278.88998781 12.88529968 276.0418396 C17.95858459 273.28252876 22.79933584 270.4904681 27.44779968 267.0418396 C31.50263123 264.0499934 34.86424017 262.86826618 39.82279968 262.0418396 C39.82279968 261.3818396 39.82279968 260.7218396 39.82279968 260.0418396 C47.07054359 258.43880918 54.32791933 257.43642286 61.69779968 256.6043396 C64.91254471 256.33253231 64.91254471 256.33253231 66.82279968 254.0418396 C68.94779968 253.4168396 68.94779968 253.4168396 70.82279968 253.0418396 C70.84601884 244.29664012 70.86376347 235.55145132 70.87461185 226.80622768 C70.87981978 222.74502406 70.8868793 218.6838416 70.89823914 214.62265015 C70.90914251 210.69988358 70.91509226 206.77713732 70.91767693 202.85435677 C70.91951778 201.36132551 70.92311243 199.86829531 70.92852974 198.37527275 C70.93583917 196.27639277 70.93678648 194.17759559 70.93632507 192.07870483 C70.93854568 190.88623642 70.9407663 189.69376801 70.9430542 188.46516418 C70.81875619 184.92673204 70.37132218 181.53728731 69.82279968 178.0418396 C69.71402908 176.53832698 69.62832657 175.03277245 69.57670593 173.5262146 C69.54383484 172.75019897 69.51096375 171.97418335 69.47709656 171.1746521 C69.41530313 169.57065254 69.358097 167.9664704 69.30522156 166.3621521 C69.2710614 165.59129272 69.23690125 164.82043335 69.20170593 164.0262146 C69.17664978 163.33237671 69.15159363 162.63853882 69.1257782 161.92367554 C68.9034961 159.71287895 68.9034961 159.71287895 66.82279968 157.0418396 C66.4126457 155.09289612 66.09112066 153.12469144 65.82279968 151.1512146 C65.57735413 149.38487671 65.57735413 149.38487671 65.32695007 147.58285522 C65.07739563 145.70630249 65.07739563 145.70630249 64.82279968 143.7918396 C64.64547302 142.52017944 64.46814636 141.24851929 64.28544617 139.93832397 C63.56293106 134.72367874 62.85167506 129.51149486 62.29545593 124.2762146 C61.54917158 117.48147321 60.26955884 111.92203058 57.43998718 105.70199585 C55.19285076 100.74065411 53.30539961 95.63643025 51.38529968 90.5418396 C50.99576111 89.50889771 50.60622253 88.47595581 50.20487976 87.41171265 C47.39674588 79.84954495 44.93119875 72.23107581 42.76249695 64.46176147 C40.98455279 57.9461443 40.98455279 57.9461443 37.82279968 52.0418396 C34.78664304 51.13604726 34.78664304 51.13604726 31.38529968 51.2293396 C23.34896736 51.03734531 23.34896736 51.03734531 20.82279968 50.0418396 C18.93052427 47.20342648 18.27147123 45.45573306 17.45561218 42.21762085 C17.08629578 40.79739624 17.08629578 40.79739624 16.70951843 39.34848022 C16.20684714 37.37259539 15.706791 35.39604317 15.20951843 33.41879272 C13.84659201 28.19659538 12.26513239 23.59059226 9.71488953 18.83554077 C7.57988147 14.54273721 6.87861581 9.68743054 5.82279968 5.0418396 C-22.13292688 4.78717365 -22.13292688 4.78717365 -49.86470032 7.8543396 Z " fill="#0D141A" transform="translate(351.1772003173828,86.95816040039063)"/>
<path d="M0 0 C0.99 0.33 1.98 0.66 3 1 C3.95087119 16.97463592 4.1213007 29.48449605 -5 43 C-5.66386719 44.04929688 -6.32773437 45.09859375 -7.01171875 46.1796875 C-8.86051662 48.80214735 -10.64755325 50.78111553 -13.0625 52.875 C-13.73410156 53.47054687 -14.40570313 54.06609375 -15.09765625 54.6796875 C-17 56 -17 56 -20 56 C-20.33 56.99 -20.66 57.98 -21 59 C-23.85475306 59.08156437 -26.70713565 59.14076372 -29.5625 59.1875 C-30.36236328 59.21263672 -31.16222656 59.23777344 -31.98632812 59.26367188 C-39.60504899 59.35696233 -45.40932412 57.44732521 -51 52 C-52.57538804 49.76084846 -54.05435171 47.47671092 -55.51953125 45.1640625 C-57.03317139 42.79076431 -57.03317139 42.79076431 -59.6875 40.4375 C-65.87917319 33.91114177 -65.38470192 25.95440034 -65.1875 17.5 C-65.17396484 16.39140625 -65.16042969 15.2828125 -65.14648438 14.140625 C-65.11138881 11.42656768 -65.0622227 8.71354807 -65 6 C-63.68 6 -62.36 6 -61 6 C-61.00112793 6.6798999 -61.00225586 7.3597998 -61.00341797 8.06030273 C-60.99119703 11.18700322 -60.93339889 14.31133439 -60.875 17.4375 C-60.87757813 18.50677734 -60.88015625 19.57605469 -60.8828125 20.67773438 C-60.69117666 28.5108492 -58.91410685 32.96412854 -54 39 C-53.26136719 40.04929688 -52.52273438 41.09859375 -51.76171875 42.1796875 C-46.37773534 49.21245627 -46.37773534 49.21245627 -38.51171875 52.6875 C-37.26841797 52.8421875 -37.26841797 52.8421875 -36 53 C-34.97519531 53.144375 -33.95039063 53.28875 -32.89453125 53.4375 C-26.57190626 53.91188218 -22.58969195 53.35148069 -17.5 49.4375 C-13.70022449 45.92577199 -10.6061359 42.45508367 -8 38 C-7.4740625 37.26523438 -6.948125 36.53046875 -6.40625 35.7734375 C-0.19066797 25.83437001 -1.09208179 14.59029274 -1.11010742 3.21801758 C-1 1 -1 1 0 0 Z " fill="#0A0B16" transform="translate(362,211)"/>
<path d="M0 0 C0.99 0.33 1.98 0.66 3 1 C2.32950976 3.89005824 1.44810392 6.61013037 0.40625 9.38671875 C-6.57920984 27.14207461 -6.57920984 27.14207461 -4.9140625 45.5 C-1.6780378 49.60923771 2.92353524 52.57145154 8.16625977 53.30175781 C10.61807481 53.43843378 13.0446311 53.45850238 15.5 53.4375 C16.32886719 53.45748047 17.15773438 53.47746094 18.01171875 53.49804688 C24.4432138 53.4929344 27.75377024 51.93125598 32.58520508 47.56860352 C37.35737555 42.69827942 38.70716596 37.39485971 40.1875 30.875 C40.4359668 29.85760742 40.68443359 28.84021484 40.94042969 27.79199219 C42.50750713 21.32805514 44.00142449 14.83932362 45.359375 8.328125 C46 6 46 6 48 3 C48.99 3.33 49.98 3.66 51 4 C49.49239564 11.73495127 47.85042052 19.43581831 46.125 27.125 C45.88136719 28.25292969 45.63773438 29.38085938 45.38671875 30.54296875 C43.09389174 40.70031121 39.7789452 49.77713086 31.28125 56.32421875 C25.96431103 59.33082114 20.40173105 59.40877222 14.4375 59.5 C13.63417236 59.51861084 12.83084473 59.53722168 12.00317383 59.55639648 C5.08869456 59.48340362 -0.09827131 57.59314005 -5.27734375 52.96484375 C-6.09912109 51.96130859 -6.09912109 51.96130859 -6.9375 50.9375 C-7.78634766 49.93009766 -7.78634766 49.93009766 -8.65234375 48.90234375 C-13.08508509 42.64511178 -11.09735197 32.21700894 -10 25 C-9.06354338 20.93429478 -7.89844892 16.97196348 -6.625 13 C-6.32078125 12.05084717 -6.0165625 11.10169434 -5.703125 10.1237793 C-3.22474373 2.84022452 -3.22474373 2.84022452 0 0 Z " fill="#090A15" transform="translate(107,210)"/>
<path d="M0 0 C0.99 0.33 1.98 0.66 3 1 C2.44814514 4.72664343 1.51554454 7.08352644 -0.6875 10.125 C-3.10543657 13.57836874 -5.13133283 17.0652352 -7.0625 20.8125 C-10.97287396 28.03554827 -10.97287396 28.03554827 -15 30 C-18.3125 30.3125 -18.3125 30.3125 -22 29 C-24.20589079 26.83192448 -26.11557072 24.57468763 -28.0078125 22.12890625 C-30.20654991 19.7792751 -31.96219055 18.9617978 -35 18 C-35 18.66 -35 19.32 -35 20 C-36.6436814 21.68933922 -38.3142876 23.35259924 -40 25 C-40.61875 25.9075 -41.2375 26.815 -41.875 27.75 C-44 30 -44 30 -47.5625 31 C-51 31 -51 31 -52.75 29.875 C-53.68954549 28.46568177 -54.5770802 27.02147271 -55.4375 25.5625 C-56.86590908 22.96729221 -56.86590908 22.96729221 -58.921875 21.18359375 C-61.22927466 18.75908922 -62.4305881 16.53937119 -63.8125 13.5 C-64.25207031 12.5615625 -64.69164062 11.623125 -65.14453125 10.65625 C-66.04264645 7.86758178 -66.03390407 6.68941917 -65 4 C-62 5 -62 5 -60.7890625 7.36328125 C-60.40492188 8.33652344 -60.02078125 9.30976563 -59.625 10.3125 C-57.68104723 14.85619684 -56.06545365 17.11138819 -52 20 C-50.1875 23.25 -50.1875 23.25 -49 26 C-48.34 26 -47.68 26 -47 26 C-45.29053147 24.08393353 -45.29053147 24.08393353 -43.5625 21.6875 C-39.10709524 15.71167634 -39.10709524 15.71167634 -37 14 C-32.43783343 13.48491668 -30.1718868 13.28088765 -26.25 15.6875 C-24 18 -24 18 -21.9375 20.6875 C-19.91291148 23.10394436 -19.06686972 23.67140682 -16 24 C-12.93138816 20.39421322 -10.71103237 16.77521127 -8.5625 12.5625 C-6.08271543 7.84877157 -3.64749535 3.86855568 0 0 Z " fill="#0B0C18" transform="translate(256,259)"/>
<path d="M0 0 C0.87398437 0.34998047 0.87398437 0.34998047 1.765625 0.70703125 C1.19882926 4.3750094 -0.16222841 5.91086537 -2.859375 8.39453125 C-6.50994485 11.89462958 -9.58574845 15.56956435 -12.59375 19.62890625 C-14.35128673 21.85511944 -16.09582472 23.84004291 -18.234375 25.70703125 C-20.984375 25.45703125 -20.984375 25.45703125 -23.234375 24.70703125 C-23.234375 23.71703125 -23.234375 22.72703125 -23.234375 21.70703125 C-21.59679126 20.33813569 -19.92523454 19.00954787 -18.234375 17.70703125 C-16.9176493 16.16165258 -15.64662259 14.57627649 -14.421875 12.95703125 C-11.72295694 9.52343606 -8.98295023 6.19679252 -5.984375 3.01953125 C-5.04851562 2.02373047 -5.04851562 2.02373047 -4.09375 1.0078125 C-2.234375 -0.29296875 -2.234375 -0.29296875 0 0 Z " fill="#F2A8CA" transform="translate(163.234375,259.29296875)"/>
<path d="M0 0 C3.82637149 0.1361443 5.65133618 1.3731534 8.2265625 4.01953125 C9.37071736 5.27359913 10.5032429 6.53835809 11.625 7.8125 C12.19734375 8.44220703 12.7696875 9.07191406 13.359375 9.72070312 C14.93007066 11.46125308 16.47109108 13.22273766 18 15 C18.62648438 15.72574219 19.25296875 16.45148438 19.8984375 17.19921875 C21 19 21 19 21 23 C16.68244906 22.71059894 14.73991299 21.117464 11.89453125 17.93945312 C11.43433594 17.40255859 10.97414063 16.86566406 10.5 16.3125 C10.03980469 15.79494141 9.57960938 15.27738281 9.10546875 14.74414062 C8.18237584 13.70013554 7.26821868 12.64815973 6.36328125 11.58837891 C5.4404078 10.51312556 4.49954997 9.45309398 3.54296875 8.40771484 C0.72887709 5.25771577 0 4.39792135 0 0 Z " fill="#F3A9CA" transform="translate(284,253)"/>
<path d="M0 0 C3.18074177 0.32467779 4.68900757 0.7085185 7.0546875 2.92578125 C7.95574219 4.10720703 7.95574219 4.10720703 8.875 5.3125 C9.49117188 6.09238281 10.10734375 6.87226563 10.7421875 7.67578125 C12 10 12 10 11.6953125 12.29296875 C11.46585937 12.85628906 11.23640625 13.41960937 11 14 C7.28912094 13.44172616 5.70048775 12.03559718 3.25 9.25 C2.63640625 8.57453125 2.0228125 7.8990625 1.390625 7.203125 C-0.25932375 4.58916125 -0.27588936 3.03478294 0 0 Z " fill="#EEA7CB" transform="translate(276,266)"/>
<path d="M0 0 C0.4375 2.0625 0.4375 2.0625 0 5 C-2.00597159 7.72436362 -4.16161225 10.14235598 -7 12 C-9.234375 11.6953125 -9.234375 11.6953125 -11 11 C-10.39940656 7.72929835 -9.32617975 5.78392943 -7.1875 3.25 C-6.68605469 2.63640625 -6.18460938 2.0228125 -5.66796875 1.390625 C-4 0 -4 0 0 0 Z " fill="#F0A7CB" transform="translate(171,272)"/>
</svg>
