<?xml version="1.0" encoding="UTF-8"?>
<svg version="1.1" xmlns="http://www.w3.org/2000/svg" width="516" height="516">
<path d="M0 0 C170.28 0 340.56 0 516 0 C516 170.28 516 340.56 516 516 C345.72 516 175.44 516 0 516 C0 345.72 0 175.44 0 0 Z " fill="#8BFEFA" transform="translate(0,0)"/>
<path d="M0 0 C5.49777575 -0.07881126 5.49777575 -0.07881126 8.18617249 1.17170715 C10.34194939 3.7194435 10.64732962 5.83704052 11.21351624 9.1131134 C12.10537418 13.5187942 13.12814803 17.16360053 15.27601624 21.1131134 C18.20971787 26.52240111 19.458488 32.07558088 20.77601624 38.0506134 C21.32946305 40.48078587 21.93840044 42.69481897 22.77601624 45.0506134 C25.99884588 46.12488995 28.33076888 46.15074595 31.71351624 46.1131134 C32.75378967 46.10408997 33.79406311 46.09506653 34.86585999 46.08576965 C35.82621155 46.07416809 36.78656311 46.06256653 37.77601624 46.0506134 C39.09601624 46.0506134 40.41601624 46.0506134 41.77601624 46.0506134 C42.17820374 47.599422 42.17820374 47.599422 42.58851624 49.17951965 C46.00413114 62.03848088 50.25433073 74.54242733 54.77601624 87.0506134 C55.07217834 87.87029602 55.36834045 88.68997864 55.67347717 89.53450012 C58.6012855 97.91214359 58.6012855 97.91214359 62.35023499 105.92951965 C64.16468972 109.90143562 64.71069848 113.62191787 65.27601624 117.9256134 C65.39783264 118.77969788 65.51964905 119.63378235 65.64515686 120.51374817 C66.34449038 125.50905164 66.95254021 130.51207483 67.52601624 135.52326965 C67.65169983 136.59915344 67.77738342 137.67503723 67.90687561 138.78352356 C68.14891978 140.88476152 68.37978942 142.98732341 68.59828186 145.09114075 C69.14173355 150.60267468 69.14173355 150.60267468 71.33070374 155.58576965 C73.69496833 159.61779927 73.31260597 163.95959464 73.40101624 168.5506134 C73.45231416 170.41529307 73.50689646 172.27988585 73.56507874 174.1443634 C73.59142395 175.37702942 73.59142395 175.37702942 73.61830139 176.63459778 C73.71149732 179.03410997 73.71149732 179.03410997 74.27679443 181.26176453 C74.87086498 184.58047573 74.91092277 187.71583465 74.92127991 191.08821106 C74.92631783 192.12083321 74.92631783 192.12083321 74.93145752 193.17431641 C74.94091604 195.43778817 74.94290761 197.70118564 74.94398499 199.9646759 C74.94719956 201.54218069 74.95056379 203.11968517 74.95407104 204.69718933 C74.96004841 207.99729606 74.96191222 211.29737664 74.96131897 214.5974884 C74.96121707 218.82890396 74.97490412 223.06015276 74.99209118 227.2915287 C75.0031965 230.54627761 75.00523868 233.80098589 75.00470924 237.0557518 C75.00589024 238.61628675 75.01031868 240.17682273 75.01804161 241.73733902 C75.02781815 243.91561452 75.02497364 246.09352365 75.01893616 248.27180481 C75.02036118 249.51136932 75.02178619 250.75093384 75.02325439 252.02806091 C74.77601624 255.0506134 74.77601624 255.0506134 72.77601624 258.0506134 C70.67567444 258.67903137 70.67567444 258.67903137 68.07679749 259.0428009 C67.12168274 259.1876593 66.16656799 259.3325177 65.18251038 259.48176575 C64.16149231 259.62823547 63.14047424 259.7747052 62.08851624 259.9256134 C44.12679041 262.71307752 44.12679041 262.71307752 28.56507874 271.59358215 C25.28705016 274.26324298 21.4876626 276.0556691 17.77601624 278.0506134 C15.04066901 279.56046204 12.31422864 281.08595662 9.58851624 282.6131134 C8.91111389 282.98927795 8.23371155 283.3654425 7.53578186 283.75300598 C3.48696591 286.01928998 -0.36202106 288.47410862 -4.22398376 291.0506134 C-8.31828963 292.75657418 -11.83183105 293.9469711 -16.22398376 293.0506134 C-21.20139464 289.25520206 -23.58849702 284.63971962 -25.43492126 278.7537384 C-25.77571716 277.68284973 -26.11651306 276.61196106 -26.46763611 275.50862122 C-26.71723083 274.69747864 -26.96682556 273.88633606 -27.22398376 273.0506134 C-27.87259998 273.04638146 -28.5212162 273.04214952 -29.18948746 273.03778934 C-45.01623785 272.93421001 -60.84294396 272.82553319 -76.66962051 272.71127415 C-84.3234691 272.65613923 -91.97732235 272.60269114 -99.63121033 272.55329895 C-106.30706831 272.51021383 -112.98289472 272.46387727 -119.65870357 272.41373485 C-123.18917352 272.38732821 -126.71963801 272.36248283 -130.25014496 272.34153938 C-134.20403208 272.31802318 -138.15784563 272.28724351 -142.11167908 272.25593567 C-143.2654303 272.25018021 -144.41918152 272.24442474 -145.6078949 272.23849487 C-151.97662407 272.18148354 -158.26250453 271.87896712 -164.60420227 271.28219604 C-168.49016581 270.93868583 -172.37212054 270.82401527 -176.27085876 270.73420715 C-177.05293701 270.71342606 -177.83501526 270.69264496 -178.64079285 270.67123413 C-181.08512012 270.60700245 -183.52953346 270.54745648 -185.97398376 270.4881134 C-187.65367938 270.44480723 -189.333367 270.40118963 -191.01304626 270.35725403 C-195.0832756 270.25145555 -199.15358943 270.1498524 -203.22398376 270.0506134 C-203.52457703 270.82509827 -203.82517029 271.59958313 -204.13487244 272.39753723 C-205.26675856 275.15481284 -206.65991311 277.51627559 -208.22398376 280.0506134 C-209.29578442 281.98298393 -210.35828286 283.92054285 -211.41148376 285.8631134 C-211.94128845 286.83893372 -212.47109314 287.81475403 -213.01695251 288.82014465 C-213.41527283 289.55619934 -213.81359314 290.29225403 -214.22398376 291.0506134 C-220.47004717 291.40574075 -224.53356192 290.47297015 -230.16148376 287.8631134 C-239.68914626 283.69198771 -249.4227162 280.78347225 -259.48960876 278.21858215 C-264.22371095 277.0091872 -268.26426987 275.7580601 -272.41148376 273.15608215 C-276.19564414 270.84807054 -280.25119801 269.00937485 -284.22398376 267.0506134 C-285.07347595 266.51307434 -285.92296814 265.97553528 -286.79820251 265.42170715 C-291.83910161 263.40419794 -296.59712102 263.61549941 -301.97398376 263.6756134 C-303.02714783 263.66401184 -304.08031189 263.65241028 -305.16539001 263.64045715 C-306.67165955 263.64625793 -306.67165955 263.64625793 -308.20835876 263.6521759 C-309.12327087 263.65555969 -310.03818298 263.65894348 -310.9808197 263.66242981 C-312.09118591 263.85458069 -312.09118591 263.85458069 -313.22398376 264.0506134 C-313.88398376 265.0406134 -314.54398376 266.0306134 -315.22398376 267.0506134 C-316.21398376 266.7206134 -317.20398376 266.3906134 -318.22398376 266.0506134 C-319.08791981 260.62960727 -319.52337231 255.27464169 -319.77476501 249.7928009 C-319.81660416 248.88835236 -319.8584433 247.98390381 -319.90155029 247.05204773 C-320.35662429 236.25312288 -320.41005101 225.45346148 -320.4092865 214.64631653 C-320.41149456 211.15856589 -320.42980273 207.67112196 -320.44859314 204.1834259 C-320.52806981 174.08380936 -320.52806981 174.08380936 -315.16148376 163.5506134 C-312.2153349 157.6865761 -311.80061039 153.15579171 -311.61851501 146.6678009 C-310.28844746 124.14395425 -302.34229642 98.32315271 -292.64585876 78.0662384 C-291.48430544 75.60272421 -290.46807827 73.14524093 -289.47398376 70.6131134 C-286.07351947 62.86522007 -277.93320447 48.90522376 -270.22398376 45.0506134 C-268.48529633 44.89794728 -266.74150876 44.80128744 -264.99742126 44.73420715 C-263.45054626 44.67136536 -263.45054626 44.67136536 -261.87242126 44.60725403 C-260.79218689 44.56793762 -259.71195251 44.52862122 -258.59898376 44.4881134 C-257.51101501 44.44492981 -256.42304626 44.40174622 -255.30210876 44.35725403 C-252.60953207 44.25096811 -249.91686123 44.14893283 -247.22398376 44.0506134 C-247.21987488 43.44064514 -247.21576599 42.83067688 -247.21153259 42.20222473 C-247.17850802 39.42155548 -247.10785809 36.64305183 -247.03648376 33.8631134 C-247.02778259 32.42355286 -247.02778259 32.42355286 -247.01890564 30.95491028 C-246.88188213 26.55493311 -246.71967269 23.81160063 -244.28257751 20.07014465 C-240.20067727 17.3749436 -236.1740241 16.17015071 -231.47398376 14.9256134 C-229.74964973 14.44518901 -228.02568822 13.96342545 -226.30210876 13.4803009 C-225.45326111 13.24794739 -224.60441345 13.01559387 -223.72984314 12.77619934 C-221.31177202 12.076033 -218.95588359 11.27348298 -216.58335876 10.4334259 C-206.83960972 7.13986972 -196.03752582 7.533643 -185.8533783 7.15022278 C-184.18225406 7.08691556 -182.51130981 7.01849124 -180.84068298 6.94319153 C-178.76010468 6.85327017 -176.68079665 6.79056976 -174.59898376 6.7381134 C-173.43109314 6.70073059 -172.26320251 6.66334778 -171.05992126 6.62483215 C-168.22398376 7.0506134 -168.22398376 7.0506134 -166.34898376 8.6678009 C-164.90332264 11.72979148 -164.88736881 14.10639049 -164.84898376 17.4881134 C-164.49135982 25.06179386 -162.31517354 31.1838376 -159.22398376 38.0506134 C-158.34355408 37.77346497 -157.46312439 37.49631653 -156.55601501 37.21076965 C-154.81384705 36.66742981 -154.81384705 36.66742981 -153.03648376 36.1131134 C-151.88792908 35.75346497 -150.73937439 35.39381653 -149.55601501 35.02326965 C-144.37032357 33.50950978 -139.82925855 32.92704146 -134.41416931 32.93708801 C-133.75019638 32.93694199 -133.08622345 32.93679596 -132.40213013 32.93664551 C-130.22162027 32.93733857 -128.04119733 32.94510241 -125.86070251 32.95295715 C-124.34327237 32.95482349 -122.82584161 32.95624637 -121.30841064 32.95724487 C-117.32507142 32.96105308 -113.34176897 32.97086881 -109.35844421 32.98194885 C-105.28954058 32.99219951 -101.22063098 32.99675031 -97.15171814 33.00178528 C-89.17578985 33.01249266 -81.19989139 33.02954863 -73.22398376 33.0506134 C-72.7449469 31.63019116 -72.26736767 30.20927728 -71.79039001 28.78816223 C-71.52427917 27.99694473 -71.25816833 27.20572723 -70.98399353 26.39053345 C-69.5712341 22.04092604 -68.45360204 17.60779263 -67.28648376 13.18733215 C-66.27381662 10.19773026 -65.36976237 8.33692159 -63.22398376 6.0506134 C-57.55448711 3.78281474 -51.45486731 3.3051496 -45.43101501 2.51545715 C-42.44845385 2.16302708 -42.44845385 2.16302708 -40.52256775 1.54133606 C-37.11906917 0.81472617 -33.70605503 0.81231398 -30.23960876 0.73420715 C-29.46518433 0.71342606 -28.69075989 0.69264496 -27.89286804 0.67123413 C-25.41999394 0.60603656 -22.94701246 0.5471212 -20.47398376 0.4881134 C-18.82553614 0.44487809 -17.17709844 0.40126226 -15.52867126 0.35725403 C-13.9323259 0.31589736 -12.33597192 0.27487126 -10.73960876 0.23420715 C-9.63918243 0.20610207 -9.63918243 0.20610207 -8.51652527 0.1774292 C-5.67781861 0.11002477 -2.83876155 0.06460451 0 0 Z " fill="#656EEC" transform="translate(379.22398376464844,111.94938659667969)"/>
<path d="M0 0 C170.28 0 340.56 0 516 0 C516 170.28 516 340.56 516 516 C345.72 516 175.44 516 0 516 C0 345.72 0 175.44 0 0 Z M19.1875 24.875 C9.80723346 36.31805664 9.70383518 48.91956801 9.73257446 63.05352783 C9.72883501 64.79682288 9.72423231 66.54011625 9.71884382 68.28340697 C9.70663499 73.0608599 9.70687179 77.83824268 9.70923257 82.61570764 C9.70964127 87.77332143 9.69859654 92.93091289 9.68911743 98.08851624 C9.67251825 108.18827874 9.66700838 118.28801791 9.66589268 128.38779292 C9.66494172 136.59875975 9.66082907 144.80971889 9.65449142 153.02068329 C9.63688226 176.30943475 9.62765209 199.5981678 9.62915237 222.88692597 C9.62923228 224.14192106 9.6293122 225.39691616 9.62939453 226.68994141 C9.62947629 227.94647191 9.62955805 229.2030024 9.62964229 230.49760959 C9.63045518 250.86107845 9.61131588 271.22447335 9.5831178 291.58792081 C9.55438074 312.50593334 9.54057795 333.42390979 9.54230535 354.34194255 C9.54296895 366.0822339 9.53748978 377.8224477 9.51594925 389.56272125 C9.49772671 399.55848945 9.49339902 409.55414493 9.5069681 419.54992256 C9.51349216 424.64724525 9.51363508 429.74435177 9.4962616 434.84165382 C9.4805013 439.51380815 9.48342471 444.18557541 9.50082986 448.85772046 C9.50389323 450.54206096 9.50029253 452.22643055 9.48910971 453.91073671 C9.39832744 468.56184348 11.35886303 481.98238196 21.8828125 492.96484375 C33.67224579 503.89896521 46.83258949 504.2983798 62.12945557 504.26742554 C63.8810002 504.27116495 65.63254317 504.27576763 67.38408351 504.28115618 C72.18433949 504.2933655 76.98452566 504.29312815 81.78479362 504.29076743 C86.96694746 504.29035874 92.14907908 504.30140334 97.33122253 504.31088257 C107.47911196 504.32748201 117.62697815 504.33299163 127.77488002 504.33410732 C136.02493914 504.33505826 144.27499061 504.33917085 152.5250473 504.34550858 C175.9244738 504.36311781 199.32388197 504.3723479 222.72331515 504.37084763 C223.98428424 504.37076772 225.24525332 504.3706878 226.54443359 504.37060547 C227.80694532 504.37052371 229.06945705 504.37044195 230.37022671 504.37035771 C250.83069332 504.36954481 271.29108631 504.38868416 291.75153163 504.4168822 C312.76898522 504.44561896 333.78640291 504.45942207 354.80387664 504.45769465 C366.60005919 504.45703104 378.39616456 504.46251067 390.19232941 504.48405075 C400.23567458 504.50227289 410.27890758 504.50660131 420.32226214 504.4930319 C425.44388766 504.48650764 430.56529802 504.48636565 435.686903 504.5037384 C440.38126178 504.5194978 445.07523531 504.5165762 449.76958486 504.49917014 C451.46200067 504.49610658 453.15444543 504.49970821 454.84682706 504.51089029 C469.52140278 504.6013787 482.96233797 502.66034413 493.96484375 492.1171875 C504.87906286 480.34921341 505.29847725 467.21768332 505.26742554 451.94647217 C505.27116499 450.20317712 505.27576769 448.45988375 505.28115618 446.71659303 C505.29336501 441.9391401 505.29312821 437.16175732 505.29076743 432.38429236 C505.29035873 427.22667857 505.30140346 422.06908711 505.31088257 416.91148376 C505.32748175 406.81172126 505.33299162 396.71198209 505.33410732 386.61220708 C505.33505828 378.40124025 505.33917093 370.19028111 505.34550858 361.97931671 C505.36311774 338.69056525 505.37234791 315.4018322 505.37084763 292.11307403 C505.37076772 290.85807894 505.3706878 289.60308384 505.37060547 288.31005859 C505.37048283 286.42526285 505.37048283 286.42526285 505.37035771 284.50239041 C505.36954482 264.13892155 505.38868412 243.77552665 505.4168822 223.41207919 C505.44561926 202.49406666 505.45942205 181.57609021 505.45769465 160.65805745 C505.45703105 148.9177661 505.46251022 137.1775523 505.48405075 125.43727875 C505.50227329 115.44151055 505.50660098 105.44585507 505.4930319 95.45007744 C505.48650784 90.35275475 505.48636492 85.25564823 505.5037384 80.15834618 C505.5194987 75.48619185 505.51657529 70.81442459 505.49917014 66.14227954 C505.49610677 64.45793904 505.49970747 62.77356945 505.51089029 61.08926329 C505.60167256 46.43815652 503.64113697 33.01761804 493.1171875 22.03515625 C481.32775421 11.10103479 468.16741051 10.7016202 452.87054443 10.73257446 C451.1189998 10.72883505 449.36745683 10.72423237 447.61591649 10.71884382 C442.81566051 10.7066345 438.01547434 10.70687185 433.21520638 10.70923257 C428.03305254 10.70964126 422.85092092 10.69859666 417.66877747 10.68911743 C407.52088804 10.67251799 397.37302185 10.66700837 387.22511998 10.66589268 C378.97506086 10.66494174 370.72500939 10.66082915 362.4749527 10.65449142 C339.0755262 10.63688219 315.67611803 10.6276521 292.27668485 10.62915237 C291.01571576 10.62923228 289.75474668 10.6293122 288.45556641 10.62939453 C287.19305468 10.62947629 285.93054295 10.62955805 284.62977329 10.62964229 C264.16930668 10.63045519 243.70891369 10.61131584 223.24846837 10.5831178 C202.23101478 10.55438104 181.21359709 10.54057793 160.19612336 10.54230535 C148.39994081 10.54296896 136.60383544 10.53748933 124.80767059 10.51594925 C114.76432542 10.49772711 104.72109242 10.49339869 94.67773786 10.5069681 C89.55611234 10.51349236 84.43470198 10.51363435 79.313097 10.4962616 C74.61873822 10.4805022 69.92476469 10.4834238 65.23041514 10.50082986 C63.53799933 10.50389342 61.84555457 10.50029179 60.15317294 10.48910971 C44.3777481 10.3918331 30.33746057 12.85284378 19.1875 24.875 Z " fill="#59F1EC" transform="translate(0,0)"/>
<path d="M0 0 C5.49777575 -0.07881126 5.49777575 -0.07881126 8.18617249 1.17170715 C10.34194939 3.7194435 10.64732962 5.83704052 11.21351624 9.1131134 C12.10537418 13.5187942 13.12814803 17.16360053 15.27601624 21.1131134 C18.20971787 26.52240111 19.458488 32.07558088 20.77601624 38.0506134 C21.32946305 40.48078587 21.93840044 42.69481897 22.77601624 45.0506134 C25.99884588 46.12488995 28.33076888 46.15074595 31.71351624 46.1131134 C32.75378967 46.10408997 33.79406311 46.09506653 34.86585999 46.08576965 C35.82621155 46.07416809 36.78656311 46.06256653 37.77601624 46.0506134 C39.09601624 46.0506134 40.41601624 46.0506134 41.77601624 46.0506134 C42.17820374 47.599422 42.17820374 47.599422 42.58851624 49.17951965 C46.00413114 62.03848088 50.25433073 74.54242733 54.77601624 87.0506134 C55.07217834 87.87029602 55.36834045 88.68997864 55.67347717 89.53450012 C58.6012855 97.91214359 58.6012855 97.91214359 62.35023499 105.92951965 C64.16468972 109.90143562 64.71069848 113.62191787 65.27601624 117.9256134 C65.39783264 118.77969788 65.51964905 119.63378235 65.64515686 120.51374817 C66.34449038 125.50905164 66.95254021 130.51207483 67.52601624 135.52326965 C67.65169983 136.59915344 67.77738342 137.67503723 67.90687561 138.78352356 C68.14891978 140.88476152 68.37978942 142.98732341 68.59828186 145.09114075 C69.14173355 150.60267468 69.14173355 150.60267468 71.33070374 155.58576965 C73.69496833 159.61779927 73.31260597 163.95959464 73.40101624 168.5506134 C73.45231416 170.41529307 73.50689646 172.27988585 73.56507874 174.1443634 C73.59142395 175.37702942 73.59142395 175.37702942 73.61830139 176.63459778 C73.71149732 179.03410997 73.71149732 179.03410997 74.27679443 181.26176453 C74.87086498 184.58047573 74.91092277 187.71583465 74.92127991 191.08821106 C74.92631783 192.12083321 74.92631783 192.12083321 74.93145752 193.17431641 C74.94091604 195.43778817 74.94290761 197.70118564 74.94398499 199.9646759 C74.94719956 201.54218069 74.95056379 203.11968517 74.95407104 204.69718933 C74.96004841 207.99729606 74.96191222 211.29737664 74.96131897 214.5974884 C74.96121707 218.82890396 74.97490412 223.06015276 74.99209118 227.2915287 C75.0031965 230.54627761 75.00523868 233.80098589 75.00470924 237.0557518 C75.00589024 238.61628675 75.01031868 240.17682273 75.01804161 241.73733902 C75.02781815 243.91561452 75.02497364 246.09352365 75.01893616 248.27180481 C75.02036118 249.51136932 75.02178619 250.75093384 75.02325439 252.02806091 C74.77601624 255.0506134 74.77601624 255.0506134 72.77601624 258.0506134 C70.67567444 258.67903137 70.67567444 258.67903137 68.07679749 259.0428009 C67.12168274 259.1876593 66.16656799 259.3325177 65.18251038 259.48176575 C64.16149231 259.62823547 63.14047424 259.7747052 62.08851624 259.9256134 C44.12679041 262.71307752 44.12679041 262.71307752 28.56507874 271.59358215 C25.28705016 274.26324298 21.4876626 276.0556691 17.77601624 278.0506134 C15.04066901 279.56046204 12.31422864 281.08595662 9.58851624 282.6131134 C8.91111389 282.98927795 8.23371155 283.3654425 7.53578186 283.75300598 C3.48696591 286.01928998 -0.36202106 288.47410862 -4.22398376 291.0506134 C-8.31828963 292.75657418 -11.83183105 293.9469711 -16.22398376 293.0506134 C-21.20139464 289.25520206 -23.58849702 284.63971962 -25.43492126 278.7537384 C-25.77571716 277.68284973 -26.11651306 276.61196106 -26.46763611 275.50862122 C-26.71723083 274.69747864 -26.96682556 273.88633606 -27.22398376 273.0506134 C-27.87259998 273.04638146 -28.5212162 273.04214952 -29.18948746 273.03778934 C-45.01623785 272.93421001 -60.84294396 272.82553319 -76.66962051 272.71127415 C-84.3234691 272.65613923 -91.97732235 272.60269114 -99.63121033 272.55329895 C-106.30706831 272.51021383 -112.98289472 272.46387727 -119.65870357 272.41373485 C-123.18917352 272.38732821 -126.71963801 272.36248283 -130.25014496 272.34153938 C-134.20403208 272.31802318 -138.15784563 272.28724351 -142.11167908 272.25593567 C-143.2654303 272.25018021 -144.41918152 272.24442474 -145.6078949 272.23849487 C-151.97662407 272.18148354 -158.26250453 271.87896712 -164.60420227 271.28219604 C-168.49016581 270.93868583 -172.37212054 270.82401527 -176.27085876 270.73420715 C-177.05293701 270.71342606 -177.83501526 270.69264496 -178.64079285 270.67123413 C-181.08512012 270.60700245 -183.52953346 270.54745648 -185.97398376 270.4881134 C-187.65367938 270.44480723 -189.333367 270.40118963 -191.01304626 270.35725403 C-195.0832756 270.25145555 -199.15358943 270.1498524 -203.22398376 270.0506134 C-203.52457703 270.82509827 -203.82517029 271.59958313 -204.13487244 272.39753723 C-205.26675856 275.15481284 -206.65991311 277.51627559 -208.22398376 280.0506134 C-209.29578442 281.98298393 -210.35828286 283.92054285 -211.41148376 285.8631134 C-211.94128845 286.83893372 -212.47109314 287.81475403 -213.01695251 288.82014465 C-213.41527283 289.55619934 -213.81359314 290.29225403 -214.22398376 291.0506134 C-220.47004717 291.40574075 -224.53356192 290.47297015 -230.16148376 287.8631134 C-239.68914626 283.69198771 -249.4227162 280.78347225 -259.48960876 278.21858215 C-264.22371095 277.0091872 -268.26426987 275.7580601 -272.41148376 273.15608215 C-276.19564414 270.84807054 -280.25119801 269.00937485 -284.22398376 267.0506134 C-285.07347595 266.51307434 -285.92296814 265.97553528 -286.79820251 265.42170715 C-291.83910161 263.40419794 -296.59712102 263.61549941 -301.97398376 263.6756134 C-303.02714783 263.66401184 -304.08031189 263.65241028 -305.16539001 263.64045715 C-306.67165955 263.64625793 -306.67165955 263.64625793 -308.20835876 263.6521759 C-309.12327087 263.65555969 -310.03818298 263.65894348 -310.9808197 263.66242981 C-312.09118591 263.85458069 -312.09118591 263.85458069 -313.22398376 264.0506134 C-313.88398376 265.0406134 -314.54398376 266.0306134 -315.22398376 267.0506134 C-316.21398376 266.7206134 -317.20398376 266.3906134 -318.22398376 266.0506134 C-319.08791981 260.62960727 -319.52337231 255.27464169 -319.77476501 249.7928009 C-319.81660416 248.88835236 -319.8584433 247.98390381 -319.90155029 247.05204773 C-320.35662429 236.25312288 -320.41005101 225.45346148 -320.4092865 214.64631653 C-320.41149456 211.15856589 -320.42980273 207.67112196 -320.44859314 204.1834259 C-320.52806981 174.08380936 -320.52806981 174.08380936 -315.16148376 163.5506134 C-312.2153349 157.6865761 -311.80061039 153.15579171 -311.61851501 146.6678009 C-310.28844746 124.14395425 -302.34229642 98.32315271 -292.64585876 78.0662384 C-291.48430544 75.60272421 -290.46807827 73.14524093 -289.47398376 70.6131134 C-286.07351947 62.86522007 -277.93320447 48.90522376 -270.22398376 45.0506134 C-268.48529633 44.89794728 -266.74150876 44.80128744 -264.99742126 44.73420715 C-263.45054626 44.67136536 -263.45054626 44.67136536 -261.87242126 44.60725403 C-260.79218689 44.56793762 -259.71195251 44.52862122 -258.59898376 44.4881134 C-257.51101501 44.44492981 -256.42304626 44.40174622 -255.30210876 44.35725403 C-252.60953207 44.25096811 -249.91686123 44.14893283 -247.22398376 44.0506134 C-247.21987488 43.44064514 -247.21576599 42.83067688 -247.21153259 42.20222473 C-247.17850802 39.42155548 -247.10785809 36.64305183 -247.03648376 33.8631134 C-247.02778259 32.42355286 -247.02778259 32.42355286 -247.01890564 30.95491028 C-246.88188213 26.55493311 -246.71967269 23.81160063 -244.28257751 20.07014465 C-240.20067727 17.3749436 -236.1740241 16.17015071 -231.47398376 14.9256134 C-229.74964973 14.44518901 -228.02568822 13.96342545 -226.30210876 13.4803009 C-225.45326111 13.24794739 -224.60441345 13.01559387 -223.72984314 12.77619934 C-221.31177202 12.076033 -218.95588359 11.27348298 -216.58335876 10.4334259 C-206.83960972 7.13986972 -196.03752582 7.533643 -185.8533783 7.15022278 C-184.18225406 7.08691556 -182.51130981 7.01849124 -180.84068298 6.94319153 C-178.76010468 6.85327017 -176.68079665 6.79056976 -174.59898376 6.7381134 C-173.43109314 6.70073059 -172.26320251 6.66334778 -171.05992126 6.62483215 C-168.22398376 7.0506134 -168.22398376 7.0506134 -166.34898376 8.6678009 C-164.90332264 11.72979148 -164.88736881 14.10639049 -164.84898376 17.4881134 C-164.49135982 25.06179386 -162.31517354 31.1838376 -159.22398376 38.0506134 C-158.34355408 37.77346497 -157.46312439 37.49631653 -156.55601501 37.21076965 C-154.81384705 36.66742981 -154.81384705 36.66742981 -153.03648376 36.1131134 C-151.88792908 35.75346497 -150.73937439 35.39381653 -149.55601501 35.02326965 C-144.37032357 33.50950978 -139.82925855 32.92704146 -134.41416931 32.93708801 C-133.75019638 32.93694199 -133.08622345 32.93679596 -132.40213013 32.93664551 C-130.22162027 32.93733857 -128.04119733 32.94510241 -125.86070251 32.95295715 C-124.34327237 32.95482349 -122.82584161 32.95624637 -121.30841064 32.95724487 C-117.32507142 32.96105308 -113.34176897 32.97086881 -109.35844421 32.98194885 C-105.28954058 32.99219951 -101.22063098 32.99675031 -97.15171814 33.00178528 C-89.17578985 33.01249266 -81.19989139 33.02954863 -73.22398376 33.0506134 C-72.7449469 31.63019116 -72.26736767 30.20927728 -71.79039001 28.78816223 C-71.52427917 27.99694473 -71.25816833 27.20572723 -70.98399353 26.39053345 C-69.5712341 22.04092604 -68.45360204 17.60779263 -67.28648376 13.18733215 C-66.27381662 10.19773026 -65.36976237 8.33692159 -63.22398376 6.0506134 C-57.55448711 3.78281474 -51.45486731 3.3051496 -45.43101501 2.51545715 C-42.44845385 2.16302708 -42.44845385 2.16302708 -40.52256775 1.54133606 C-37.11906917 0.81472617 -33.70605503 0.81231398 -30.23960876 0.73420715 C-29.46518433 0.71342606 -28.69075989 0.69264496 -27.89286804 0.67123413 C-25.41999394 0.60603656 -22.94701246 0.5471212 -20.47398376 0.4881134 C-18.82553614 0.44487809 -17.17709844 0.40126226 -15.52867126 0.35725403 C-13.9323259 0.31589736 -12.33597192 0.27487126 -10.73960876 0.23420715 C-9.63918243 0.20610207 -9.63918243 0.20610207 -8.51652527 0.1774292 C-5.67781861 0.11002477 -2.83876155 0.06460451 0 0 Z M-9.8245697 4.09992981 C-13.07843161 4.15473258 -16.33117506 4.22647706 -19.58433533 4.31306458 C-20.92373282 4.34633851 -22.26327136 4.37436291 -23.60289001 4.39704895 C-31.83452975 4.53900849 -39.4132347 5.24802449 -47.38023376 7.37580872 C-50.99608993 8.23382953 -54.496457 8.45441257 -58.20054626 8.54670715 C-61.04766342 9.25573826 -61.64232694 10.62397617 -63.22398376 13.0506134 C-64.56526591 16.4077892 -65.48823952 19.88669012 -66.47398376 23.3631134 C-66.75499939 24.28801575 -67.03601501 25.21291809 -67.32554626 26.16584778 C-68.8807586 31.58214421 -69.53088642 35.54186675 -68.22398376 41.0506134 C-70.69898376 41.5456134 -70.69898376 41.5456134 -73.22398376 42.0506134 C-74.21398376 39.5756134 -74.21398376 39.5756134 -75.22398376 37.0506134 C-83.57019712 36.95719098 -91.91618548 36.88648763 -100.26279545 36.84336472 C-104.14010384 36.82264903 -108.01704986 36.79463228 -111.89414978 36.74885559 C-115.648406 36.70481585 -119.40231772 36.68135653 -123.15681267 36.67110443 C-124.57629749 36.66381561 -125.99576735 36.64958884 -127.41510201 36.62769318 C-138.51586941 36.46353852 -151.16759626 36.89154261 -160.22398376 44.0506134 C-163.47398376 44.7381134 -163.47398376 44.7381134 -166.22398376 45.0506134 C-165.87335876 44.5349884 -165.52273376 44.0193634 -165.16148376 43.4881134 C-163.36026952 38.80495637 -165.04484702 34.43364061 -166.72398376 29.9256134 C-168.51213436 24.90837532 -168.75588871 19.96571172 -169.01304626 14.6756134 C-168.93250685 12.12602489 -168.93250685 12.12602489 -170.22398376 11.0506134 C-189.07900075 10.11474395 -208.55467595 10.7377082 -226.13414001 17.8865509 C-229.50864756 19.15785716 -232.76779558 19.93658762 -236.32164001 20.4959259 C-238.88576712 21.24357693 -240.28173647 22.20324245 -242.22398376 24.0506134 C-242.86647839 26.7479423 -242.86647839 26.7479423 -242.83335876 29.81233215 C-242.86558533 30.93059387 -242.89781189 32.04885559 -242.93101501 33.20100403 C-242.9451947 34.36825012 -242.95937439 35.53549622 -242.97398376 36.7381134 C-243.01845642 38.50638489 -243.01845642 38.50638489 -243.06382751 40.31037903 C-243.13460033 43.22385973 -243.18726102 46.13653677 -243.22398376 49.0506134 C-243.96970642 48.99824524 -244.71542908 48.94587708 -245.48374939 48.891922 C-248.8962867 48.68274257 -252.30747828 48.55364091 -255.72398376 48.4256134 C-256.89703064 48.34182434 -258.07007751 48.25803528 -259.27867126 48.17170715 C-265.99074173 47.94144966 -265.99074173 47.94144966 -271.68809509 51.08161926 C-273.75754302 53.64258226 -275.51235376 56.24017854 -277.22398376 59.0506134 C-278.07657027 60.24854756 -278.933818 61.44319545 -279.79820251 62.63264465 C-284.73368979 70.17728048 -288.25258918 77.492997 -291.22398376 86.0506134 C-291.71898376 87.1849884 -292.21398376 88.3193634 -292.72398376 89.4881134 C-297.27180968 100.28919996 -300.45733647 111.12642363 -302.96421814 122.55378723 C-303.47203171 124.85427025 -304.00340388 127.14844921 -304.53648376 129.44319153 C-306.42181374 137.79713734 -307.69212384 145.85488508 -307.80155945 154.43704224 C-307.94208807 160.17116552 -309.85067843 163.55749862 -312.80259705 168.32746887 C-318.71579509 179.65618942 -316.49601661 196.44799964 -316.42979431 208.782547 C-316.4115935 212.27952961 -316.40928503 215.77624463 -316.40953064 219.27326965 C-316.39357551 229.57754733 -316.28866437 239.86715773 -315.77476501 250.1599884 C-315.73626938 250.95495728 -315.69777374 251.74992615 -315.65811157 252.56898499 C-315.75231255 256.1091444 -315.75231255 256.1091444 -314.22398376 259.0506134 C-312.62286405 259.17189897 -311.01688568 259.2302582 -309.41148376 259.2615509 C-308.41761658 259.28991028 -307.42374939 259.31826965 -306.39976501 259.3474884 C-304.31398881 259.39879901 -302.22803138 259.44328556 -300.14195251 259.4803009 C-291.81478607 259.73685032 -284.79320842 261.21741245 -277.59898376 265.5506134 C-274.87402886 267.13977274 -272.20777849 268.54661224 -269.28648376 269.7381134 C-266.22398376 271.0506134 -266.22398376 271.0506134 -264.22398376 273.0506134 C-261.6820763 273.76897856 -259.17134838 274.4039463 -256.59898376 274.9881134 C-250.94147404 276.33412639 -245.62569877 277.87097402 -240.22398376 280.0506134 C-238.7473336 280.53747994 -237.26799979 281.0162607 -235.78648376 281.4881134 C-232.57341942 282.52958943 -229.58482349 283.78554884 -226.53648376 285.2381134 C-222.95553942 286.89037369 -220.21996682 287.46045782 -216.22398376 287.0506134 C-215.89785095 286.38674622 -215.57171814 285.72287903 -215.23570251 285.03889465 C-213.03928312 280.60070207 -210.77201304 276.29732886 -208.22398376 272.0506134 C-207.54249727 270.38995137 -206.87392733 268.72387237 -206.22398376 267.0506134 C-201.29845029 267.0256419 -196.37295476 267.00762662 -191.44737244 266.99568176 C-189.77646746 266.99069495 -188.10556674 266.98390309 -186.43467712 266.97517395 C-184.01417479 266.96285772 -181.59373079 266.9573285 -179.17320251 266.95295715 C-178.4425206 266.94779587 -177.71183868 266.94263458 -176.95901489 266.93731689 C-173.03482997 266.93690518 -169.2007311 267.13042311 -165.29771423 267.5448761 C-158.69325329 268.16023289 -152.12023568 268.22496929 -145.49082947 268.25593567 C-144.14931962 268.26553981 -142.80781264 268.27555126 -141.46630859 268.28593445 C-137.85965552 268.31271539 -134.25298971 268.33386816 -130.64629388 268.35393643 C-126.86399599 268.37596359 -123.0817361 268.40326958 -119.29946899 268.42999268 C-112.15291403 268.47969534 -105.00633771 268.52471633 -97.85974139 268.56801504 C-89.71693171 268.61758042 -81.5741602 268.6724263 -73.43138754 268.72769463 C-56.69562157 268.84116991 -39.95982045 268.94808251 -23.22398376 269.0506134 C-22.98950704 271.05612691 -22.75503031 273.06164042 -22.52055359 275.06715393 C-21.77254964 280.06980557 -19.23172963 283.96330866 -15.84898376 287.6131134 C-12.42931255 289.4857905 -10.95965718 288.97288689 -7.22398376 288.0506134 C-4.80530802 286.79737886 -4.80530802 286.79737886 -2.47398376 285.1131134 C3.20390729 281.33301677 9.09285104 278.07887295 15.08509827 274.82551575 C19.56703961 272.36386826 23.75034994 269.7392773 27.90101624 266.7381134 C38.09689661 259.77233287 50.3606335 257.69052032 62.35023499 255.72639465 C65.40937889 255.12293753 67.91731409 254.24837999 70.77601624 253.0506134 C70.79934472 244.2959252 70.81703463 235.54124795 70.82782841 226.78653526 C70.83301287 222.71992762 70.84002833 218.65334149 70.85145569 214.58674622 C70.86244425 210.6509798 70.86832633 206.71523387 70.87089348 202.77945328 C70.87271932 201.28941654 70.87628348 199.79938072 70.88174629 198.30935287 C70.91157408 189.82417142 70.69694637 181.42415429 69.97302246 172.96165466 C69.80528925 170.4831629 69.82638228 168.14984494 69.96351624 165.6756134 C69.78157431 162.15806953 69.50937742 161.29506876 67.83460999 158.44514465 C65.38369366 153.73530678 64.97826783 149.35312972 64.65101624 144.1131134 C64.23058778 138.26736876 63.56706547 132.748639 62.19984436 127.04499817 C61.66153529 124.51190671 61.60777918 122.07320049 61.58851624 119.4881134 C61.11393436 112.58909909 58.43933414 107.12817863 55.55335999 100.96076965 C53.52752491 96.61452926 52.05123172 92.15092326 50.60804749 87.5818634 C49.75192901 84.84137045 49.75192901 84.84137045 48.21351624 81.4881134 C46.66538782 77.78606719 45.68120012 74.12067739 44.66664124 70.2459259 C43.60390791 66.43313703 42.39845595 62.68134589 41.15101624 58.9256134 C40.82351379 57.92981262 40.82351379 57.92981262 40.48939514 56.91389465 C39.58549174 53.72891414 39.58549174 53.72891414 37.77601624 51.0506134 C34.57606584 50.80340693 31.37689749 50.6664231 28.17054749 50.5271759 C24.30717653 49.98479241 21.96154243 49.32598926 18.77601624 47.0506134 C17.75109017 44.37913452 17.14546917 42.25303302 16.65101624 39.4881134 C16.34264892 38.03642748 16.0288446 36.58588582 15.70960999 35.1365509 C15.48120422 34.08225891 15.48120422 34.08225891 15.2481842 33.00666809 C14.42907574 29.61333976 13.0864305 26.4847091 11.71742249 23.2849884 C9.63593693 18.34469904 8.08077139 13.21245001 6.65101624 8.0506134 C6.07830438 5.19262402 6.07830438 5.19262402 4.77601624 4.0506134 C3.24426161 3.96585454 1.70847357 3.95310851 0.17445374 3.96858215 C-0.82360291 3.97808899 -1.82165955 3.98759583 -2.84996033 3.99739075 C-5.17479213 4.0340632 -7.49966674 4.06808614 -9.8245697 4.09992981 Z " fill="#010202" transform="translate(379.22398376464844,111.94938659667969)"/>
<path d="M0 0 C0.99 0.33 1.98 0.66 3 1 C4.51415491 18.94961824 3.35143074 32.50120913 -8 47 C-10.96915592 50.4772899 -14.18784801 53.45856534 -18 56 C-18.87398438 56.58974609 -18.87398438 56.58974609 -19.765625 57.19140625 C-23.22301116 58.4425932 -26.68312111 58.32818444 -30.3125 58.3125 C-31.04662109 58.32861328 -31.78074219 58.34472656 -32.53710938 58.36132812 C-39.90531295 58.36786602 -45.57666345 56.15216973 -51 51 C-65.15758707 34.36567193 -65.15758707 34.36567193 -65.09765625 23.578125 C-65.09443359 22.55332031 -65.09121094 21.52851563 -65.08789062 20.47265625 C-65.07951172 19.40917969 -65.07113281 18.34570312 -65.0625 17.25 C-65.05798828 16.17105469 -65.05347656 15.09210938 -65.04882812 13.98046875 C-65.03705727 11.32025617 -65.02061399 8.66015635 -65 6 C-63.68 6 -62.36 6 -61 6 C-60.9906543 6.65484375 -60.98130859 7.3096875 -60.97167969 7.984375 C-60.9175474 10.99030905 -60.83398611 13.99475775 -60.75 17 C-60.73582031 18.02996094 -60.72164063 19.05992187 -60.70703125 20.12109375 C-60.42038323 29.12184163 -58.24244388 35.06700567 -52.0625 41.6875 C-51.36898438 42.43515625 -50.67546875 43.1828125 -49.9609375 43.953125 C-48.99027344 44.96632813 -48.99027344 44.96632813 -48 46 C-47.49726563 46.53109375 -46.99453125 47.0621875 -46.4765625 47.609375 C-41.88586602 52.33918349 -38.41317983 53.50751466 -31.9375 53.625 C-24.68467101 53.68015459 -20.3119783 52.45853308 -14.9375 47.265625 C-12.13507413 43.98859475 -10.00012189 40.81104305 -8 37 C-7.4740625 36.23171875 -6.948125 35.4634375 -6.40625 34.671875 C-0.36994531 24.93406272 -1.09164838 14.26673574 -1.11010742 3.1262207 C-1 1 -1 1 0 0 Z " fill="#010103" transform="translate(390,236)"/>
<path d="M0 0 C0.99 0.33 1.98 0.66 3 1 C2.73316406 1.63421875 2.46632812 2.2684375 2.19140625 2.921875 C-2.6600062 15.45601603 -7.6364582 29.39233404 -6 43 C-3.85100512 47.42956088 -1.12282659 49.84804873 3.15234375 52.16796875 C7.25685934 53.36723051 11.18210913 53.3684482 15.4375 53.375 C16.27087891 53.39949219 17.10425781 53.42398438 17.96289062 53.44921875 C24.59775572 53.48068847 27.93101046 51.94661552 32.7878418 47.28344727 C38.83020328 40.58820182 40.13114464 32.8708753 41.75 24.3125 C42.16373262 22.22181957 42.58459423 20.13292823 43.01422119 18.04545593 C43.39932965 16.161097 43.76426542 14.27264788 44.12792969 12.3840332 C45.01601943 8.93783727 46.29521156 6.11346642 48 3 C48.99 3.33 49.98 3.66 51 4 C50.0782621 8.21733711 49.14377512 12.43098415 48.1875 16.640625 C47.3735041 20.24508398 46.63387932 23.85546501 45.9375 27.484375 C43.43419511 39.95530394 40.63082941 48.53583199 29.86328125 56.24609375 C25.26714417 58.7376253 20.68214319 58.58732867 15.5625 58.5 C14.20801758 58.52320313 14.20801758 58.52320313 12.82617188 58.546875 C5.52027535 58.50455265 0.4202639 56.73973111 -5.27734375 52.17578125 C-9.7184878 47.19125016 -11.16593667 43.64783791 -11 37 C-11.020625 36.10152344 -11.04125 35.20304687 -11.0625 34.27734375 C-10.90591888 26.69294577 -8.988784 20.04205169 -6.625 12.875 C-6.32078125 11.94977539 -6.0165625 11.02455078 -5.703125 10.07128906 C-3.19113522 2.81174595 -3.19113522 2.81174595 0 0 Z " fill="#010103" transform="translate(135,235)"/>
<path d="M0 0 C0.33 0 0.66 0 1 0 C1 12.54 1 25.08 1 38 C-12.2 38 -25.4 38 -39 38 C-36.12629911 36.0841994 -33.65504143 35.07476121 -30.4375 33.875 C-15.99795659 27.92827983 -7.16889735 16.97317353 -1 3 C-0.67 2.01 -0.34 1.02 0 0 Z " fill="#000000" transform="translate(515,478)"/>
<path d="M0 0 C1.11693649 1.67540473 2.20805232 3.37176562 3.19140625 5.12890625 C11.8190787 20.44241034 23.11883154 29.25677465 40 34 C40 34.33 40 34.66 40 35 C26.8 35 13.6 35 0 35 C0 23.45 0 11.9 0 0 Z " fill="#000000" transform="translate(0,481)"/>
<path d="M0 0 C12.21 0 24.42 0 37 0 C37 12.21 37 24.42 37 37 C35.13576129 34.20364194 33.88169156 31.55257439 32.5 28.5 C26.29637596 16.07773105 16.28567095 7.02754074 3.3125 2.0625 C2.219375 1.711875 1.12625 1.36125 0 1 C0 0.67 0 0.34 0 0 Z " fill="#000000" transform="translate(479,0)"/>
<path d="M0 0 C11.88 0 23.76 0 36 0 C33.20364194 1.86423871 30.55257439 3.11830844 27.5 4.5 C14.96070768 10.76206497 5.92194677 20.88265861 1 34 C0.67 34 0.34 34 0 34 C0 22.78 0 11.56 0 0 Z " fill="#000000" transform="translate(0,0)"/>
<path d="M0 0 C0.99 0.33 1.98 0.66 3 1 C1.69229605 4.49547406 0.15107021 7.57927449 -1.8125 10.75 C-3.85606092 14.07326654 -5.75897926 17.41634948 -7.5625 20.875 C-9.56473866 24.45996064 -11.26241175 27.04221568 -15 29 C-18.3125 29.3125 -18.3125 29.3125 -22 28 C-24.23805877 25.79966132 -26.18035176 23.509201 -28.10546875 21.03125 C-30.11467701 18.87704733 -31.12765769 18.35665448 -34 18 C-34.64066406 18.78246094 -35.28132813 19.56492187 -35.94140625 20.37109375 C-36.81417816 21.39401997 -37.68792854 22.41611191 -38.5625 23.4375 C-39.40941406 24.44683594 -40.25632813 25.45617187 -41.12890625 26.49609375 C-44.52074537 29.45414665 -46.55316814 29.88843074 -51 30 C-53.26975485 28.54087188 -54.02371514 26.95903748 -55.375 24.625 C-56.9129154 21.8789207 -56.9129154 21.8789207 -59.4375 19.75 C-62.66188251 16.28968706 -64.7394286 12.57571046 -66 8 C-65.6015625 5.72265625 -65.6015625 5.72265625 -65 4 C-62 5 -62 5 -60.61328125 7.21484375 C-60.18402344 8.11332031 -59.75476563 9.01179688 -59.3125 9.9375 C-58.65701172 11.28134766 -58.65701172 11.28134766 -57.98828125 12.65234375 C-57 15 -57 15 -57 17 C-56.13375 17.309375 -56.13375 17.309375 -55.25 17.625 C-52.18589456 19.49750888 -50.84460032 21.96958519 -49 25 C-45.35231141 23.51660664 -43.56162642 21.48572944 -41.125 18.4375 C-38.73759272 15.71532712 -37.28898823 14.13847353 -34 12.5625 C-28.16087386 13.41403923 -24.25377422 17.55815965 -20.5 21.875 C-20.005 22.57625 -19.51 23.2775 -19 24 C-16.64802273 23.62863517 -15.35139311 23.4046009 -13.76171875 21.57421875 C-13.40722656 20.95160156 -13.05273438 20.32898438 -12.6875 19.6875 C-12.06294922 18.62015625 -12.06294922 18.62015625 -11.42578125 17.53125 C-10.95527344 16.6959375 -10.48476563 15.860625 -10 15 C-8.79529202 12.89375559 -7.58680779 10.78966762 -6.375 8.6875 C-5.80523437 7.68074219 -5.23546875 6.67398437 -4.6484375 5.63671875 C-3.24587869 3.39328938 -1.96394985 1.74374941 0 0 Z " fill="#010102" transform="translate(284,284)"/>
<path d="M0 0 C0.5775 0.226875 1.155 0.45375 1.75 0.6875 C1.35465413 4.24561282 -0.22690977 5.75046021 -2.72338867 8.16918945 C-4.43172577 9.86823766 -6.04529319 11.63380612 -7.66015625 13.421875 C-8.25763672 14.07800781 -8.85511719 14.73414063 -9.47070312 15.41015625 C-10.70812118 16.77223466 -11.939826 18.13952341 -13.16601562 19.51171875 C-13.76220703 20.16269531 -14.35839844 20.81367188 -14.97265625 21.484375 C-15.77328491 22.37141113 -15.77328491 22.37141113 -16.59008789 23.27636719 C-18.4619483 24.86768255 -19.85070228 25.28680129 -22.25 25.6875 C-22.9609375 23.91015625 -22.9609375 23.91015625 -23.25 21.6875 C-21.9140625 19.93359375 -21.9140625 19.93359375 -19.875 18.125 C-15.5656253 14.10291695 -11.96193683 9.7392324 -8.328125 5.10546875 C-3.5200449 -0.48889513 -3.5200449 -0.48889513 0 0 Z " fill="#F7AAC9" transform="translate(191.25,284.3125)"/>
<path d="M0 0 C2.66710654 0.15240609 4.4505871 0.49364919 6.4453125 2.33203125 C10 6.50625 10 6.50625 10 9 C10.87398438 9.37705078 10.87398438 9.37705078 11.765625 9.76171875 C14.28271059 11.15667703 15.8343335 12.67170175 17.75 14.8125 C18.67039062 15.81216797 18.67039062 15.81216797 19.609375 16.83203125 C21.27285439 19.42537692 21.27440795 20.97623542 21 24 C16.93929136 23.50107334 15.20110902 22.66672913 12.625 19.5 C12.03589844 18.78714844 11.44679688 18.07429688 10.83984375 17.33984375 C8.35450757 14.17908713 5.89212749 11.0025408 3.48046875 7.78515625 C2.10781932 5.88599673 2.10781932 5.88599673 0 5 C0 3.35 0 1.7 0 0 Z " fill="#F4A9CA" transform="translate(312,277)"/>
<path d="M0 0 C4.24639108 0.49137859 6.0535809 1.57272355 8.8125 4.8125 C9.71935547 5.84310547 9.71935547 5.84310547 10.64453125 6.89453125 C12 9 12 9 12 13 C9.73828125 13.265625 9.73828125 13.265625 7 13 C4.98046875 11.171875 4.98046875 11.171875 3.1875 8.75 C2.58292969 7.96109375 1.97835938 7.1721875 1.35546875 6.359375 C0 4 0 4 0 0 Z " fill="#F4A9CA" transform="translate(304,291)"/>
<path d="M0 0 C0.99 0.33 1.98 0.66 3 1 C2.67 2.98 2.34 4.96 2 7 C1.01 7.33 0.02 7.66 -1 8 C-2.20882096 10.00016466 -2.20882096 10.00016466 -3 12 C-4.65 12 -6.3 12 -8 12 C-7.84595887 6.91664275 -4.97931568 4.64245282 -1.49609375 1.35546875 C-1.00238281 0.90816406 -0.50867188 0.46085937 0 0 Z " fill="#EFA7CB" transform="translate(196,296)"/>
</svg>
